<?xml version="1.0" encoding="UTF-8"?>
<svg width="700pt" height="700pt" version="1.1" viewBox="0 0 700 700" xmlns="http://www.w3.org/2000/svg" xmlns:xlink="http://www.w3.org/1999/xlink">
 <g>
  <path d="m309.99 396.67c0-22.055-17.941-39.996-39.988-39.996s-39.988 17.941-39.988 39.996 17.938 39.996 39.988 39.996c22.051-0.003907 39.988-17.949 39.988-39.996zm-63.527 0c0-12.98 10.555-23.543 23.535-23.543 12.98 0 23.543 10.562 23.543 23.543s-10.562 23.543-23.543 23.543c-12.977-0.003906-23.535-10.562-23.535-23.543z"/>
  <path d="m206.94 486.15v5.918c0 4.5469 3.6836 8.2266 8.2266 8.2266h109.66c4.5469 0 8.2266-3.6797 8.2266-8.2266v-5.918c0-21.207-27.105-37.199-63.051-37.199-35.957 0.003906-63.066 15.992-63.066 37.199zm63.062-20.746c24.594 0 43.457 9.3125 46.246 18.441l-92.504-0.003906c2.793-9.125 21.656-18.438 46.258-18.438z"/>
  <path d="m444.46 396.67c0-22.055-17.938-39.996-39.988-39.996-22.059 0-40 17.941-40 39.996s17.941 39.996 40 39.996c22.055-0.003907 39.988-17.949 39.988-39.996zm-63.543 0c0-12.98 10.566-23.543 23.555-23.543 12.98 0 23.535 10.562 23.535 23.543s-10.555 23.543-23.535 23.543c-12.984-0.003906-23.555-10.562-23.555-23.543z"/>
  <path d="m341.41 486.15v5.918c0 4.5469 3.6797 8.2266 8.2266 8.2266h109.66c4.543 0 8.2266-3.6797 8.2266-8.2266v-5.918c0-21.207-27.105-37.195-63.043-37.195-35.961 0-63.074 15.996-63.074 37.195zm63.066-20.742c24.59 0 43.445 9.3086 46.234 18.434h-92.496c2.793-9.125 21.66-18.434 46.262-18.434z"/>
  <path d="m498.94 396.67c0 22.055 17.941 39.996 40 39.996s40-17.941 40-39.996-17.949-39.996-40-39.996c-22.051 0-40 17.941-40 39.996zm63.551 0c0 12.98-10.566 23.543-23.555 23.543s-23.547-10.562-23.547-23.543 10.562-23.543 23.547-23.543c12.988 0 23.555 10.562 23.555 23.543z"/>
  <path d="m538.95 448.96c-35.945 0-63.055 15.992-63.055 37.199v5.918c0 4.5469 3.6836 8.2266 8.2266 8.2266h109.66c4.5469 0 8.2266-3.6797 8.2266-8.2266v-5.918c-0.007812-21.203-27.117-37.199-63.062-37.199zm-46.25 34.895c2.793-9.1289 21.656-18.441 46.25-18.441s43.457 9.3125 46.25 18.441z"/>
  <path d="m347.03 135.22h170.4c4.6328 0 8.3906-3.7578 8.3906-8.3945s-3.7578-8.3906-8.3906-8.3906h-170.4c-4.6328 0-8.3906 3.7539-8.3906 8.3906 0.003906 4.6367 3.7617 8.3945 8.3906 8.3945z"/>
  <path d="m517.43 213.3h-90.113c-4.6328 0-8.3906 3.7539-8.3906 8.3906 0 4.6367 3.7539 8.3945 8.3906 8.3945h90.113c4.6328 0 8.3906-3.7578 8.3906-8.3945 0-4.6406-3.7578-8.3906-8.3906-8.3906z"/>
  <path d="m347.03 182.65h170.4c4.6328 0 8.3906-3.7578 8.3906-8.3906 0-4.6367-3.7578-8.3945-8.3906-8.3945l-170.4 0.003907c-4.6328 0-8.3906 3.7578-8.3906 8.3945 0.003906 4.6289 3.7617 8.3867 8.3906 8.3867z"/>
  <path d="m125.93 111.75c0 22.953 18.676 41.629 41.629 41.629s41.637-18.672 41.637-41.629c0-22.961-18.676-41.629-41.637-41.629-22.953 0-41.629 18.672-41.629 41.629zm66.812 0c0 13.883-11.301 25.176-25.184 25.176s-25.176-11.297-25.176-25.176c0-13.883 11.297-25.184 25.176-25.184 13.883 0.003906 25.184 11.305 25.184 25.184z"/>
  <path d="m599.71 300.21v-232.12c0-4.6367-3.7461-8.3945-8.3945-8.3945h-341.94c-4.6328 0-8.3906 3.7578-8.3906 8.3945l0.003906 77.23h16.789v-68.84h325.15v215.36l-99.523-0.003907h-225.62v-75.906h-16.789v84.289c0 4.6367 3.7539 8.3945 8.3906 8.3945h341.94c4.6406 0 8.3906-3.7578 8.3906-8.3945z"/>
  <path d="m113.38 281.93h12.176v82.008c0 8.4844 6.9062 15.383 15.383 15.383h53.238c8.4844 0 15.383-6.8984 15.383-15.383v-159.71h66.742c8.4844 0 15.383-6.8984 15.383-15.383v-10.852c0-8.4844-6.8984-15.391-15.383-15.391h-139.14c-21.594 0-39.16 17.574-39.16 39.168v64.773c0 8.4844 6.8984 15.387 15.383 15.387zm1.0703-80.16c0-12.523 10.188-22.715 22.707-22.715h138.08v8.7266h-73.895c-4.5469 0-8.2266 3.6836-8.2266 8.2266v166.86h-17.328v-82.336c0-4.5469-3.6797-8.2266-8.2266-8.2266s-8.2266 3.6797-8.2266 8.2266v82.332h-17.332v-158.14c0-4.543-3.6797-8.2266-8.2266-8.2266-4.543 0-8.2266 3.6836-8.2266 8.2266v60.742l-11.098 0.003907z"/>
  <use x="70" y="644" xlink:href="#v"/>
  <use x="90.550781" y="644" xlink:href="#d"/>
  <use x="104.359375" y="644" xlink:href="#a"/>
  <use x="123.347656" y="644" xlink:href="#c"/>
  <use x="142.242188" y="644" xlink:href="#b"/>
  <use x="155.628906" y="644" xlink:href="#a"/>
  <use x="174.617188" y="644" xlink:href="#f"/>
  <use x="204.410156" y="644" xlink:href="#k"/>
  <use x="224.453125" y="644" xlink:href="#j"/>
  <use x="252.453125" y="644" xlink:href="#i"/>
  <use x="275.695312" y="644" xlink:href="#c"/>
  <use x="294.589844" y="644" xlink:href="#u"/>
  <use x="312.839844" y="644" xlink:href="#h"/>
  <use x="322.4375" y="644" xlink:href="#f"/>
  <use x="352.226562" y="644" xlink:href="#t"/>
  <use x="373.925781" y="644" xlink:href="#g"/>
  <use x="393.859375" y="644" xlink:href="#c"/>
  <use x="412.753906" y="644" xlink:href="#h"/>
  <use x="70" y="672" xlink:href="#s"/>
  <use x="82.183594" y="672" xlink:href="#d"/>
  <use x="95.992188" y="672" xlink:href="#e"/>
  <use x="115.226562" y="672" xlink:href="#r"/>
  <use x="154.152344" y="672" xlink:href="#b"/>
  <use x="167.535156" y="672" xlink:href="#g"/>
  <use x="187.46875" y="672" xlink:href="#a"/>
  <use x="216.207031" y="672" xlink:href="#q"/>
  <use x="239.640625" y="672" xlink:href="#e"/>
  <use x="258.878906" y="672" xlink:href="#p"/>
  <use x="278.8125" y="672" xlink:href="#o"/>
  <use x="308.492188" y="672" xlink:href="#n"/>
  <use x="329.015625" y="672" xlink:href="#d"/>
  <use x="342.820312" y="672" xlink:href="#e"/>
  <use x="362.058594" y="672" xlink:href="#m"/>
  <use x="371.65625" y="672" xlink:href="#a"/>
  <use x="390.648438" y="672" xlink:href="#l"/>
  <use x="407.242188" y="672" xlink:href="#b"/>
 </g>
</svg>
